<svg width="33" height="32" viewBox="0 0 33 32" fill="#ffffff" xmlns="http://www.w3.org/2000/svg">
<path id="Vector" d="M26.7426 22.4003L26.8759 22.5337C27.1786 22.8389 27.5536 23.0627 27.966 23.1842C28.3784 23.3056 28.8148 23.3208 29.2346 23.2283C29.6477 23.1416 30.0323 22.9525 30.3531 22.6782C30.6739 22.404 30.9207 22.0535 31.0706 21.659C31.8067 19.7261 32.1587 17.668 32.1066 15.6003C31.9565 11.539 30.2861 7.6823 27.4263 4.79464C24.5666 1.90698 20.7263 0.199147 16.6666 0.00966397C14.5199 -0.0649783 12.3802 0.293384 10.375 1.06339C8.36973 1.83339 6.54008 2.99927 4.99508 4.49151C3.45008 5.98375 2.22137 7.77181 1.38219 9.74908C0.54301 11.7264 0.110551 13.8523 0.110596 16.0003C0.115536 20.2423 1.80283 24.3091 4.80234 27.3086C7.80186 30.3081 11.8686 31.9954 16.1106 32.0003C16.5613 32.0003 17.0039 31.971 17.4439 31.9337C17.7778 31.9055 18.0888 31.7527 18.3151 31.5057C18.5414 31.2586 18.6664 30.9354 18.6653 30.6003L18.6226 25.8163C18.6118 24.871 18.883 23.9438 19.4016 23.1533C19.9202 22.3628 20.6626 21.7448 21.534 21.3782C22.4055 21.0115 23.3664 20.913 24.2942 21.095C25.2219 21.2771 26.0743 21.7315 26.7426 22.4003ZM22.8199 10.7337C23.2022 10.6322 23.606 10.6464 23.9803 10.7745C24.3545 10.9025 24.6824 11.1386 24.9224 11.453C25.1625 11.7673 25.3039 12.1458 25.3289 12.5406C25.3538 12.9353 25.2612 13.3286 25.0626 13.6707C24.8641 14.0128 24.5686 14.2883 24.2134 14.4625C23.8583 14.6366 23.4595 14.7016 23.0675 14.6491C22.6754 14.5966 22.3078 14.429 22.0109 14.1676C21.7141 13.9062 21.5015 13.5626 21.3999 13.1803C21.3325 12.9264 21.3157 12.6617 21.3506 12.4014C21.3854 12.141 21.4712 11.89 21.6031 11.6628C21.735 11.4356 21.9103 11.2366 22.1191 11.0772C22.3279 10.9178 22.566 10.801 22.8199 10.7337ZM10.5133 22.6003C10.131 22.7018 9.72716 22.6876 9.35292 22.5595C8.97868 22.4315 8.65081 22.1954 8.41076 21.881C8.17071 21.5666 8.02927 21.1882 8.00431 20.7934C7.97935 20.3987 8.072 20.0054 8.27055 19.6633C8.46909 19.3212 8.76461 19.0457 9.11975 18.8715C9.47488 18.6974 9.87368 18.6324 10.2657 18.6849C10.6578 18.7374 11.0254 18.905 11.3222 19.1664C11.6191 19.4278 11.8317 19.7714 11.9333 20.1537C12.0007 20.4076 12.0175 20.6722 11.9826 20.9326C11.9478 21.193 11.862 21.444 11.7301 21.6712C11.5982 21.8984 11.4229 22.0974 11.2141 22.2568C11.0053 22.4162 10.7672 22.533 10.5133 22.6003ZM10.5133 14.6003C10.131 14.7018 9.72716 14.6876 9.35292 14.5595C8.97868 14.4315 8.65081 14.1954 8.41076 13.881C8.17071 13.5667 8.02927 13.1882 8.00431 12.7934C7.97935 12.3987 8.072 12.0054 8.27055 11.6633C8.46909 11.3212 8.76461 11.0457 9.11975 10.8715C9.47488 10.6974 9.87368 10.6324 10.2657 10.6849C10.6578 10.7374 11.0254 10.905 11.3222 11.1664C11.6191 11.4278 11.8317 11.7714 11.9333 12.1537C12.0007 12.4076 12.0175 12.6722 11.9826 12.9326C11.9478 13.193 11.862 13.444 11.7301 13.6712C11.5982 13.8984 11.4229 14.0974 11.2141 14.2568C11.0053 14.4162 10.7672 14.533 10.5133 14.6003ZM17.1799 10.6003C16.7976 10.7018 16.3938 10.6876 16.0196 10.5595C15.6453 10.4315 15.3175 10.1954 15.0774 9.88101C14.8374 9.56665 14.6959 9.18817 14.671 8.79342C14.646 8.39867 14.7387 8.00539 14.9372 7.6633C15.1358 7.3212 15.4313 7.04566 15.7864 6.87151C16.1416 6.69736 16.5403 6.63243 16.9324 6.68491C17.3244 6.7374 17.6921 6.90495 17.9889 7.16638C18.2857 7.42782 18.4984 7.77139 18.5999 8.15366C18.6674 8.40755 18.6842 8.67224 18.6493 8.93262C18.6144 9.19299 18.5286 9.44395 18.3968 9.67115C18.2649 9.89836 18.0896 10.0974 17.8808 10.2568C17.672 10.4162 17.4338 10.533 17.1799 10.6003Z" fill="#27487F"/>
</svg>
