<svg width="32" height="32" viewBox="0 0 32 32" fill="none" xmlns="http://www.w3.org/2000/svg">
<g id="fi-sr-book-alt" clip-path="url(#clip0_99_733)">
<path id="Vector" d="M29.6 2.88421C28.8399 2.25002 27.9481 1.79307 26.9894 1.54653C26.0307 1.29998 25.0291 1.27004 24.0573 1.45887L21.7053 2.03487C20.4779 2.2598 19.3682 2.90799 18.5694 3.86664C17.7706 4.82528 17.3332 6.03369 17.3333 7.28154V27.9042C16.4491 28.0335 15.5508 28.0335 14.6667 27.9042V7.28154C14.6711 6.0452 14.2438 4.84609 13.4585 3.89115C12.6732 2.93621 11.5793 2.28534 10.3653 2.05087L7.86667 1.44287C6.90554 1.267 5.91751 1.30454 4.9725 1.55284C4.0275 1.80114 3.14862 2.25413 2.39809 2.87975C1.64756 3.50536 1.04371 4.2883 0.629309 5.17315C0.214904 6.058 6.50833e-05 7.02312 0 8.00021L0 22.3909C7.66078e-05 23.9519 0.547969 25.4635 1.54818 26.662C2.54839 27.8606 3.93748 28.6701 5.47333 28.9495L13.8547 30.4735C15.2733 30.7313 16.7267 30.7313 18.1453 30.4735L26.5333 28.9495C28.068 28.6687 29.4555 27.8586 30.4544 26.6602C31.4533 25.4618 32.0002 23.951 32 22.3909V8.00021C32.0006 7.02347 31.7858 6.05861 31.371 5.17433C30.9562 4.29006 30.3515 3.50812 29.6 2.88421Z" fill="#4178D4"/>
</g>
<defs>
<clipPath id="clip0_99_733">
<rect width="32" height="32" fill="white"/>
</clipPath>
</defs>
</svg>
