<svg width="24" height="24" viewBox="0 0 24 24" fill="none" xmlns="http://www.w3.org/2000/svg">
<g id="fi-sr-comment" clip-path="url(#clip0_683_225)">
<path id="Vector" d="M19.675 2.75827C18.408 1.70392 16.9364 0.923427 15.3528 0.465964C13.7692 0.00850183 12.1081 -0.116013 10.474 0.100265C7.45108 0.492983 4.6909 2.02144 2.75394 4.37527C0.816972 6.72911 -0.151582 9.73188 0.0449391 12.7739C0.24146 15.8159 1.58832 18.6691 3.81205 20.7541C6.03578 22.8392 8.96968 23.9998 12.018 24.0003H19C20.3256 23.9987 21.5965 23.4714 22.5338 22.534C23.4711 21.5967 23.9984 20.3259 24 19.0003V11.3093V11.2463C23.8942 9.61171 23.456 8.01592 22.7124 6.55648C21.9687 5.09704 20.9352 3.80462 19.675 2.75827ZM8.00002 7.00027H12C12.2652 7.00027 12.5196 7.10562 12.7071 7.29316C12.8947 7.48069 13 7.73505 13 8.00027C13 8.26548 12.8947 8.51984 12.7071 8.70737C12.5196 8.89491 12.2652 9.00027 12 9.00027H8.00002C7.7348 9.00027 7.48044 8.89491 7.29291 8.70737C7.10537 8.51984 7.00002 8.26548 7.00002 8.00027C7.00002 7.73505 7.10537 7.48069 7.29291 7.29316C7.48044 7.10562 7.7348 7.00027 8.00002 7.00027ZM16 17.0003H8.00002C7.7348 17.0003 7.48044 16.8949 7.29291 16.7074C7.10537 16.5198 7.00002 16.2655 7.00002 16.0003C7.00002 15.735 7.10537 15.4807 7.29291 15.2932C7.48044 15.1056 7.7348 15.0003 8.00002 15.0003H16C16.2652 15.0003 16.5196 15.1056 16.7071 15.2932C16.8947 15.4807 17 15.735 17 16.0003C17 16.2655 16.8947 16.5198 16.7071 16.7074C16.5196 16.8949 16.2652 17.0003 16 17.0003ZM16 13.0003H8.00002C7.7348 13.0003 7.48044 12.8949 7.29291 12.7074C7.10537 12.5198 7.00002 12.2655 7.00002 12.0003C7.00002 11.735 7.10537 11.4807 7.29291 11.2932C7.48044 11.1056 7.7348 11.0003 8.00002 11.0003H16C16.2652 11.0003 16.5196 11.1056 16.7071 11.2932C16.8947 11.4807 17 11.735 17 12.0003C17 12.2655 16.8947 12.5198 16.7071 12.7074C16.5196 12.8949 16.2652 13.0003 16 13.0003Z" fill="#CBD5E1"/>
</g>
<defs>
<clipPath id="clip0_683_225">
<rect width="24" height="24" fill="white"/>
</clipPath>
</defs>
</svg>
