<svg width="32" height="32" viewBox="0 0 32 32" fill="none" xmlns="http://www.w3.org/2000/svg">
<g id="fi-sr-eye-dropper" clip-path="url(#clip0_99_723)">
<path id="Vector" d="M27.5706 9.85734C26.3493 11.0787 26.628 13.6413 27.604 15.4133C27.9765 16.1159 28.0844 16.9288 27.908 17.7042C27.7317 18.4795 27.2827 19.1658 26.643 19.6381C26.0032 20.1103 25.2152 20.3372 24.4223 20.2774C23.6293 20.2175 22.8842 19.8749 22.3226 19.312L12.688 9.67734C12.1284 9.11501 11.7887 8.37081 11.7306 7.57962C11.6724 6.78842 11.8997 6.00257 12.3711 5.36448C12.8425 4.72639 13.5268 4.27827 14.3002 4.10134C15.0735 3.92441 15.8847 4.03037 16.5866 4.40001C18.3586 5.37468 20.9213 5.65468 22.1426 4.43334L25.448 1.12401C26.179 0.425762 27.151 0.0361328 28.162 0.0361328C29.1729 0.0361328 30.1449 0.425762 30.876 1.12401C31.233 1.48064 31.5161 1.90413 31.7094 2.37027C31.9026 2.83642 32.002 3.33607 32.002 3.84068C32.002 4.34528 31.9026 4.84494 31.7094 5.31108C31.5161 5.77723 31.233 6.20072 30.876 6.55734L27.5706 9.85734ZM2.62529 23.1293C1.96802 23.7927 1.53833 24.6476 1.39815 25.5709C1.25797 26.4942 1.41454 27.4381 1.84529 28.2667L0.390626 29.724C0.140665 29.974 0.000244141 30.3131 0.000244141 30.6667C0.000244141 31.0202 0.140665 31.3593 0.390626 31.6093C0.640663 31.8593 0.979741 31.9997 1.33329 31.9997C1.68684 31.9997 2.02592 31.8593 2.27596 31.6093L3.73329 30.1547C4.56005 30.5949 5.50677 30.7567 6.43279 30.6159C7.35881 30.4751 8.2147 30.0394 8.87329 29.3733L18.74 19.5067L12.4973 13.2587L2.62529 23.1293Z" fill="#46BD84"/>
</g>
<defs>
<clipPath id="clip0_99_723">
<rect width="32" height="32" fill="white"/>
</clipPath>
</defs>
</svg>
