<svg width="32" height="32" viewBox="0 0 32 32" fill="none" xmlns="http://www.w3.org/2000/svg">
<g id="graph">
<g id="Graph">
<path id="Path" d="M13.537 7.40778C13.6049 7.546 13.6497 7.69402 13.6698 7.84619L14.0411 13.3661L14.2253 16.1405C14.2272 16.4258 14.272 16.7093 14.3582 16.9818C14.5808 17.5105 15.1162 17.8465 15.6987 17.8231L24.5751 17.2425C24.9594 17.2361 25.3306 17.3799 25.6069 17.6421C25.8372 17.8606 25.9859 18.1465 26.0327 18.454L26.0484 18.6407C25.6811 23.7269 21.9455 27.9693 16.8698 29.0644C11.794 30.1595 6.58911 27.8461 4.08091 23.3803C3.35781 22.0828 2.90616 20.6567 2.75247 19.1857C2.68826 18.7502 2.65999 18.3104 2.66793 17.8705C2.66 12.4174 6.54325 7.70302 11.9791 6.56649C12.6333 6.46463 13.2747 6.81097 13.537 7.40778Z" fill="#64748B"/>
<path id="Path_2" opacity="0.4" d="M17.1599 2.66808C23.2398 2.82276 28.3497 7.19471 29.3333 13.0834L29.3239 13.1268L29.297 13.19L29.3008 13.3635C29.2868 13.5933 29.1981 13.8144 29.0452 13.993C28.8859 14.179 28.6683 14.3057 28.4287 14.3549L28.2826 14.3749L18.0415 15.0385C17.7009 15.0721 17.3617 14.9622 17.1084 14.7363C16.8973 14.548 16.7623 14.2938 16.7242 14.0199L16.0368 3.79374C16.0248 3.75916 16.0248 3.72168 16.0368 3.6871C16.0462 3.40522 16.1703 3.13878 16.3813 2.9473C16.5924 2.75582 16.8728 2.65526 17.1599 2.66808Z" fill="#64748B"/>
</g>
</g>
</svg>
