<svg width="32" height="32" viewBox="0 0 32 32" fill="none" xmlns="http://www.w3.org/2000/svg">
<g id="fi-sr-square-root" clip-path="url(#clip0_99_715)">
<path id="Vector" d="M21.3867 5.33366C20.5123 5.33575 19.6626 5.62345 18.9668 6.15296C18.2709 6.68247 17.7671 7.4248 17.5321 8.26699L12.1334 27.691C12.0043 28.1593 11.7264 28.5728 11.3415 28.8692C10.9566 29.1655 10.4858 29.3285 10.0001 29.3337C9.525 29.3274 9.06323 29.176 8.67667 28.8997C8.29011 28.6235 7.99726 28.2357 7.8374 27.7883L4.1134 17.5483C3.87069 16.8506 3.46404 16.2214 2.92761 15.7135C2.39118 15.2056 1.74066 14.8339 1.03073 14.6297C0.68701 14.5464 0.39045 14.33 0.206289 14.028C0.0221282 13.7261 -0.0345471 13.3634 0.0487309 13.0197C0.132009 12.6759 0.348418 12.3794 0.650352 12.1952C0.952286 12.0111 1.31501 11.9544 1.65873 12.0377C2.79757 12.3429 3.84472 12.9214 4.7093 13.723C5.57388 14.5246 6.22978 15.5251 6.62006 16.6377L9.91873 25.7043L14.9641 7.54966C15.3569 6.14746 16.1968 4.91183 17.356 4.03054C18.5153 3.14926 19.9305 2.67049 21.3867 2.66699H30.6667C31.0203 2.66699 31.3595 2.80747 31.6095 3.05752C31.8596 3.30756 32.0001 3.6467 32.0001 4.00033C32.0001 4.35395 31.8596 4.69309 31.6095 4.94313C31.3595 5.19318 31.0203 5.33366 30.6667 5.33366H21.3867ZM31.4667 16.267C31.1838 16.0548 30.8282 15.9637 30.4782 16.0137C30.1281 16.0637 29.8122 16.2508 29.6001 16.5337L26.6667 20.4443L23.7334 16.5337C23.5212 16.2508 23.2054 16.0637 22.8553 16.0137C22.5052 15.9637 22.1496 16.0548 21.8667 16.267C21.5838 16.4792 21.3968 16.795 21.3468 17.1451C21.2968 17.4952 21.3879 17.8508 21.6001 18.1337L25.0001 22.667L21.6001 27.2003C21.3879 27.4832 21.2968 27.8388 21.3468 28.1889C21.3968 28.539 21.5838 28.8548 21.8667 29.067C22.1496 29.2792 22.5052 29.3703 22.8553 29.3203C23.2054 29.2702 23.5212 29.0832 23.7334 28.8003L26.6667 24.8897L29.6001 28.8003C29.7051 28.9404 29.8367 29.0584 29.9874 29.1476C30.1381 29.2368 30.3048 29.2955 30.4782 29.3203C30.6515 29.345 30.828 29.3354 30.9976 29.2919C31.1673 29.2485 31.3267 29.172 31.4667 29.067C31.6068 28.9619 31.7248 28.8303 31.814 28.6796C31.9032 28.529 31.9619 28.3622 31.9867 28.1889C32.0114 28.0156 32.0018 27.839 31.9583 27.6694C31.9149 27.4998 31.8385 27.3404 31.7334 27.2003L28.3334 22.667L31.7334 18.1337C31.8385 17.9936 31.9149 17.8342 31.9583 17.6646C32.0018 17.4949 32.0114 17.3184 31.9867 17.1451C31.9619 16.9718 31.9032 16.805 31.814 16.6543C31.7248 16.5037 31.6068 16.372 31.4667 16.267Z" fill="#86242E"/>
</g>
<defs>
<clipPath id="clip0_99_715">
<rect width="32" height="32" fill="white"/>
</clipPath>
</defs>
</svg>
