<svg width="32" height="32" viewBox="0 0 32 32" fill="none" xmlns="http://www.w3.org/2000/svg">
<g id="fi-sr-medicine">
<path id="Vector" d="M21.3333 12V9.33333H10.6667V12C8.89921 12.0021 7.20474 12.7052 5.95496 13.955C4.70518 15.2047 4.00212 16.8992 4 18.6667V25.3333C4.00212 27.1008 4.70518 28.7953 5.95496 30.045C7.20474 31.2948 8.89921 31.9979 10.6667 32H21.3333C23.1008 31.9979 24.7953 31.2948 26.045 30.045C27.2948 28.7953 27.9979 27.1008 28 25.3333V18.6667C27.9979 16.8992 27.2948 15.2047 26.045 13.955C24.7953 12.7052 23.1008 12.0021 21.3333 12ZM20 22.6667H17.3333V25.3333C17.3333 25.687 17.1929 26.0261 16.9428 26.2761C16.6928 26.5262 16.3536 26.6667 16 26.6667C15.6464 26.6667 15.3072 26.5262 15.0572 26.2761C14.8071 26.0261 14.6667 25.687 14.6667 25.3333V22.6667H12C11.6464 22.6667 11.3072 22.5262 11.0572 22.2761C10.8071 22.0261 10.6667 21.687 10.6667 21.3333C10.6667 20.9797 10.8071 20.6406 11.0572 20.3905C11.3072 20.1405 11.6464 20 12 20H14.6667V17.3333C14.6667 16.9797 14.8071 16.6406 15.0572 16.3905C15.3072 16.1405 15.6464 16 16 16C16.3536 16 16.6928 16.1405 16.9428 16.3905C17.1929 16.6406 17.3333 16.9797 17.3333 17.3333V20H20C20.3536 20 20.6928 20.1405 20.9428 20.3905C21.1929 20.6406 21.3333 20.9797 21.3333 21.3333C21.3333 21.687 21.1929 22.0261 20.9428 22.2761C20.6928 22.5262 20.3536 22.6667 20 22.6667ZM20.6667 6.66667H11.3333C10.4493 6.66667 9.60143 6.31548 8.97631 5.69036C8.35119 5.06523 8 4.21739 8 3.33333C8 2.44928 8.35119 1.60143 8.97631 0.976311C9.60143 0.351189 10.4493 0 11.3333 0L20.6667 0C21.5507 0 22.3986 0.351189 23.0237 0.976311C23.6488 1.60143 24 2.44928 24 3.33333C24 4.21739 23.6488 5.06523 23.0237 5.69036C22.3986 6.31548 21.5507 6.66667 20.6667 6.66667Z" fill="#52B6DF"/>
</g>
</svg>
