<?xml version="1.0" encoding="iso-8859-1"?>
<!-- Uploaded to: SVG Repo, www.svgrepo.com, Generator: SVG Repo Mixer Tools -->
<svg fill="#000000" height="800px" width="800px" version="1.1" id="Layer_1" xmlns="http://www.w3.org/2000/svg" xmlns:xlink="http://www.w3.org/1999/xlink" 
	 viewBox="0 0 512 512" xml:space="preserve">
<g>
	<g>
		<path d="M501.801,397.367h-84.673V217.392c0-20.233-8.228-40.022-22.574-54.29L351.57,120.35l36.605-36.605
			c3.983-3.983,3.983-10.441,0-14.425l-53.082-53.082c-3.983-3.983-10.441-3.983-14.425,0L283.88,53.028l-23.142-23.017
			c-3.986-3.963-10.428-3.956-14.404,0.019l-40.383,40.383c-1.912,1.912-2.987,4.506-2.987,7.212s1.075,5.299,2.987,7.212
			l23.059,23.059l-58.756,58.759c-3.983,3.983-3.983,10.441,0,14.425l8.109,8.109l-44.826,44.827
			c-3.983,3.983-3.983,10.441,0,14.425l22.438,22.438c1.992,1.992,4.602,2.987,7.212,2.987s5.221-0.995,7.212-2.987l44.827-44.826
			l8.109,8.109c1.992,1.992,4.602,2.987,7.212,2.987s5.221-0.995,7.212-2.987l58.758-58.758l26.651,26.651
			c10.609,10.61,16.452,24.716,16.452,39.72v155.593h-203.97V361.67h64.255c5.633,0,10.199-4.566,10.199-10.199v-37.829
			c0-5.633-4.566-10.199-10.199-10.199H52.016c-5.633,0-10.199,4.566-10.199,10.199v37.829c0,5.633,4.566,10.199,10.199,10.199
			h63.235v35.697H10.199C4.566,397.367,0,401.933,0,407.566v80.983c0,5.633,4.566,10.199,10.199,10.199h491.602
			c5.633,0,10.199-4.566,10.199-10.199v-80.983C512,401.933,507.434,397.367,501.801,397.367z M327.882,37.875l38.658,38.658
			l-29.433,29.433l-38.763-38.552L327.882,37.875z M163.187,249.242l-8.015-8.015l37.615-37.615l8.015,8.015L163.187,249.242z
			 M230.548,212.525l-8.105-8.105c-0.002-0.002-0.003-0.003-0.005-0.005l-22.438-22.438c-0.002-0.002-0.003-0.003-0.005-0.005
			l-8.105-8.105l51.546-51.545l38.658,38.657L230.548,212.525z M337.593,187.629L227.587,77.625l25.978-25.978L380.17,177.564
			c10.525,10.467,16.56,24.984,16.56,39.827v179.974H360.02V241.773C360.02,221.322,352.055,202.093,337.593,187.629z
			 M62.215,341.271v-17.43h127.49v17.43H62.215z M491.602,478.35H20.398v-60.584h471.203V478.35z"/>
	</g>
</g>
<g>
	<g>
		<path d="M275.378,427.873h-7.139c-5.633,0-10.199,4.566-10.199,10.199c0,5.633,4.566,10.199,10.199,10.199h7.139
			c5.633,0,10.199-4.566,10.199-10.199C285.578,432.439,281.012,427.873,275.378,427.873z"/>
	</g>
</g>
<g>
	<g>
		<path d="M230.502,427.873H41.817c-5.633,0-10.199,4.566-10.199,10.199c0,5.633,4.566,10.199,10.199,10.199h188.685
			c5.633,0,10.199-4.566,10.199-10.199C240.701,432.439,236.135,427.873,230.502,427.873z"/>
	</g>
</g>
</svg>