<svg width="32" height="32" viewBox="0 0 32 32" fill="none" xmlns="http://www.w3.org/2000/svg">
<g id="fi-sr-reflect" clip-path="url(#clip0_99_743)">
<path id="Vector" d="M30.6667 17.3337H1.33333C0.979711 17.3337 0.640573 17.1932 0.390524 16.9431C0.140476 16.6931 0 16.3539 0 16.0003C0 15.6467 0.140476 15.3076 0.390524 15.0575C0.640573 14.8075 0.979711 14.667 1.33333 14.667H30.6667C31.0203 14.667 31.3594 14.8075 31.6095 15.0575C31.8595 15.3076 32 15.6467 32 16.0003C32 16.3539 31.8595 16.6931 31.6095 16.9431C31.3594 17.1932 31.0203 17.3337 30.6667 17.3337ZM25.2453 9.50166C25.4129 8.79057 25.3349 8.0437 25.0241 7.38256C24.7133 6.72142 24.1878 6.18491 23.5333 5.86033L12.8907 0.570994C12.2263 0.193702 11.4751 -0.00409348 10.7111 -0.00292454C9.94709 -0.00175559 9.19654 0.198337 8.53333 0.57766C7.95552 0.912545 7.47776 1.39584 7.14955 1.97747C6.82134 2.55911 6.65462 3.21792 6.66667 3.88566V8.00033C6.66667 9.06119 7.08809 10.0786 7.83824 10.8288C8.58839 11.5789 9.6058 12.0003 10.6667 12.0003H21.7573C22.5379 12.0512 23.312 11.83 23.948 11.3745C24.5839 10.9189 25.0423 10.2571 25.2453 9.50166ZM12.8373 31.4563L23.548 26.1337C24.1988 25.8074 24.7204 25.271 25.0285 24.6114C25.3365 23.9517 25.4129 23.2075 25.2453 22.499C25.0423 21.7435 24.5839 21.0817 23.948 20.6262C23.312 20.1707 22.5379 19.9495 21.7573 20.0003H10.6667C9.6058 20.0003 8.58839 20.4218 7.83824 21.1719C7.08809 21.922 6.66667 22.9395 6.66667 24.0003V28.1137C6.65448 28.7814 6.82114 29.4403 7.14936 30.022C7.47758 30.6036 7.95542 31.0869 8.53333 31.4217C9.19407 31.8052 9.94537 32.005 10.7093 32.0003C11.4533 32.0026 12.1857 31.8153 12.8373 31.4563Z" fill="#B45309"/>
</g>
<defs>
<clipPath id="clip0_99_743">
<rect width="32" height="32" fill="white"/>
</clipPath>
</defs>
</svg>
