<svg width="32" height="32" viewBox="0 0 32 32" fill="none" xmlns="http://www.w3.org/2000/svg">
<g id="fi-sr-screen">
<path id="Vector" d="M25.3333 4H6.66667C4.89921 4.00212 3.20474 4.70518 1.95496 5.95496C0.705176 7.20474 0.00211714 8.89921 0 10.6667L0 18.6667C0.00211714 20.4341 0.705176 22.1286 1.95496 23.3784C3.20474 24.6282 4.89921 25.3312 6.66667 25.3333H14.6667V26.6667H10.6667C10.313 26.6667 9.97391 26.8071 9.72386 27.0572C9.47381 27.3072 9.33333 27.6464 9.33333 28C9.33333 28.3536 9.47381 28.6928 9.72386 28.9428C9.97391 29.1929 10.313 29.3333 10.6667 29.3333H21.3333C21.687 29.3333 22.0261 29.1929 22.2761 28.9428C22.5262 28.6928 22.6667 28.3536 22.6667 28C22.6667 27.6464 22.5262 27.3072 22.2761 27.0572C22.0261 26.8071 21.687 26.6667 21.3333 26.6667H17.3333V25.3333H25.3333C27.1008 25.3312 28.7953 24.6282 30.045 23.3784C31.2948 22.1286 31.9979 20.4341 32 18.6667V10.6667C31.9979 8.89921 31.2948 7.20474 30.045 5.95496C28.7953 4.70518 27.1008 4.00212 25.3333 4Z" fill="#2A714F"/>
</g>
</svg>
