<svg width="32" height="32" viewBox="0 0 32 32" fill="none" xmlns="http://www.w3.org/2000/svg">
<g id="fi-sr-stats" clip-path="url(#clip0_99_717)">
<path id="Vector" d="M30.6667 29.3333H4C3.64638 29.3333 3.30724 29.1929 3.05719 28.9428C2.80714 28.6928 2.66667 28.3536 2.66667 28V1.33333C2.66667 0.979711 2.52619 0.640573 2.27614 0.390524C2.02609 0.140476 1.68696 0 1.33333 0C0.979711 0 0.640573 0.140476 0.390524 0.390524C0.140476 0.640573 0 0.979711 0 1.33333L0 28C0 29.0609 0.421427 30.0783 1.17157 30.8284C1.92172 31.5786 2.93913 32 4 32H30.6667C31.0203 32 31.3594 31.8595 31.6095 31.6095C31.8595 31.3594 32 31.0203 32 30.6667C32 30.313 31.8595 29.9739 31.6095 29.7239C31.3594 29.4738 31.0203 29.3333 30.6667 29.3333Z" fill="#F59E0B"/>
<path id="Vector_2" d="M20 26.667C20.3536 26.667 20.6927 26.5265 20.9428 26.2765C21.1928 26.0264 21.3333 25.6873 21.3333 25.3337V16.0003C21.3333 15.6467 21.1928 15.3076 20.9428 15.0575C20.6927 14.8075 20.3536 14.667 20 14.667C19.6463 14.667 19.3072 14.8075 19.0572 15.0575C18.8071 15.3076 18.6666 15.6467 18.6666 16.0003V25.3337C18.6666 25.6873 18.8071 26.0264 19.0572 26.2765C19.3072 26.5265 19.6463 26.667 20 26.667Z" fill="#F59E0B"/>
<path id="Vector_3" d="M9.33333 26.667C9.68696 26.667 10.0261 26.5265 10.2761 26.2765C10.5262 26.0264 10.6667 25.6873 10.6667 25.3337V16.0003C10.6667 15.6467 10.5262 15.3076 10.2761 15.0575C10.0261 14.8075 9.68696 14.667 9.33333 14.667C8.97971 14.667 8.64057 14.8075 8.39052 15.0575C8.14048 15.3076 8 15.6467 8 16.0003V25.3337C8 25.6873 8.14048 26.0264 8.39052 26.2765C8.64057 26.5265 8.97971 26.667 9.33333 26.667Z" fill="#F59E0B"/>
<path id="Vector_4" d="M25.3333 26.6667C25.687 26.6667 26.0261 26.5262 26.2761 26.2761C26.5262 26.0261 26.6667 25.687 26.6667 25.3333V9.33333C26.6667 8.97971 26.5262 8.64057 26.2761 8.39052C26.0261 8.14048 25.687 8 25.3333 8C24.9797 8 24.6406 8.14048 24.3905 8.39052C24.1405 8.64057 24 8.97971 24 9.33333V25.3333C24 25.687 24.1405 26.0261 24.3905 26.2761C24.6406 26.5262 24.9797 26.6667 25.3333 26.6667Z" fill="#F59E0B"/>
<path id="Vector_5" d="M14.6667 26.6667C15.0203 26.6667 15.3595 26.5262 15.6095 26.2761C15.8596 26.0261 16 25.687 16 25.3333V9.33333C16 8.97971 15.8596 8.64057 15.6095 8.39052C15.3595 8.14048 15.0203 8 14.6667 8C14.3131 8 13.9739 8.14048 13.7239 8.39052C13.4739 8.64057 13.3334 8.97971 13.3334 9.33333V25.3333C13.3334 25.687 13.4739 26.0261 13.7239 26.2761C13.9739 26.5262 14.3131 26.6667 14.6667 26.6667Z" fill="#F59E0B"/>
</g>
<defs>
<clipPath id="clip0_99_717">
<rect width="32" height="32" fill="white"/>
</clipPath>
</defs>
</svg>
