<svg width="100" height="100" viewBox="0 0 100 100" fill="none" xmlns="http://www.w3.org/2000/svg">
<g id="Successmark" clip-path="url(#clip0_7_127)">
<g id="Sticker">
<path id="Vector" d="M96.4807 49.9979C98.0251 48.1995 99.1074 46.0514 99.6336 43.74C100.16 41.4286 100.114 39.0238 99.5006 36.734C98.887 34.4443 97.724 32.3388 96.1125 30.6003C94.501 28.8618 92.4897 27.5427 90.253 26.7575C90.6912 24.4277 90.5544 22.0262 89.8544 19.7613C89.1543 17.4964 87.9122 15.4365 86.2358 13.7603C84.5594 12.0841 82.4994 10.8423 80.2344 10.1425C77.9694 9.44278 75.5678 9.30626 73.2381 9.74482C72.4535 7.50759 71.1347 5.49569 69.3961 3.88379C67.6576 2.27189 65.5519 1.10872 63.2618 0.495259C60.9717 -0.118203 58.5665 -0.163409 56.255 0.363565C53.9435 0.890539 51.7956 1.97377 49.9977 3.5192C48.1992 1.97483 46.0512 0.892578 43.7398 0.366332C41.4284 -0.159914 39.0235 -0.114262 36.7338 0.499326C34.444 1.11291 32.3386 2.27591 30.6 3.88741C28.8615 5.49892 27.5424 7.51027 26.7572 9.74698C24.4276 9.30913 22.0263 9.44627 19.7617 10.1465C17.4971 10.8467 15.4375 12.0888 13.7616 13.7652C12.0857 15.4415 10.8441 17.5014 10.1444 19.7662C9.44481 22.031 9.30829 24.4323 9.74673 26.7618C7.51002 27.547 5.49867 28.8661 3.88716 30.6046C2.27565 32.3431 1.11265 34.4486 0.499062 36.7383C-0.114525 39.0281 -0.160184 41.433 0.366062 43.7444C0.892308 46.0557 1.97458 48.2038 3.51895 50.0022C1.97411 51.8006 0.891505 53.9489 0.36511 56.2605C-0.161286 58.5721 -0.115588 60.9773 0.498269 63.2672C1.11213 65.5572 2.27557 67.6627 3.88763 69.4011C5.49969 71.1395 7.51167 72.4582 9.7489 73.2427C9.31008 75.5723 9.44644 77.9737 10.1462 80.2386C10.8459 82.5036 12.0878 84.5635 13.7641 86.2396C15.4405 87.9157 17.5006 89.1574 19.7656 89.8568C22.0306 90.5562 24.4321 90.6923 26.7616 90.2532C27.5468 92.4899 28.8658 94.5013 30.6044 96.1128C32.3429 97.7243 34.4483 98.8873 36.7381 99.5008C39.0278 100.114 41.4327 100.16 43.7441 99.6338C46.0555 99.1076 48.2036 98.0253 50.002 96.481C51.8004 98.0258 53.9486 99.1084 56.2603 99.6348C58.5719 100.161 60.977 100.115 63.267 99.5016C65.5569 98.8878 67.6625 97.7243 69.4008 96.1123C71.1392 94.5002 72.4579 92.4882 73.2425 90.251C75.5721 90.6897 77.9736 90.5533 80.2385 89.8535C82.5035 89.1538 84.5635 87.9119 86.2397 86.2357C87.916 84.5594 89.1579 82.4994 89.8576 80.2345C90.5574 77.9695 90.6938 75.568 90.2551 73.2384C92.492 72.4533 94.5035 71.1343 96.1151 69.3957C97.7267 67.6571 98.8896 65.5515 99.5031 63.2616C100.116 60.9717 100.162 58.5667 99.6351 56.2553C99.1084 53.9439 98.0257 51.796 96.4807 49.9979Z" fill="#18C07A"/>
<path id="Vector_2" d="M41.0244 69.0843L27.13 55.1985C26.6027 54.6703 26.3065 53.9545 26.3065 53.2082C26.3065 52.4618 26.6027 51.746 27.13 51.2178L28.8181 49.5276C29.3462 49.0003 30.0621 48.7041 30.8084 48.7041C31.5547 48.7041 32.2706 49.0003 32.7987 49.5276L42.8989 59.6212L66.6854 34.3439C67.1972 33.8008 67.9036 33.483 68.6495 33.4602C69.3954 33.4375 70.1199 33.7116 70.6639 34.2225L72.3974 35.8585C72.9412 36.3705 73.2594 37.0773 73.2821 37.8238C73.3049 38.5702 73.0303 39.2951 72.5188 39.8392L45.0723 69.0214C44.8139 69.2968 44.5027 69.5175 44.1573 69.6702C43.8119 69.823 43.4393 69.9047 43.0617 69.9106C42.6841 69.9164 42.3091 69.8463 41.9591 69.7044C41.6091 69.5624 41.2913 69.3515 41.0244 69.0843Z" fill="white"/>
</g>
</g>
<defs>
<clipPath id="clip0_7_127">
<rect width="100" height="100" fill="white"/>
</clipPath>
</defs>
</svg>
